<svg width="134" height="48" viewBox="0 0 134 48" fill="none" xmlns="http://www.w3.org/2000/svg">
<rect width="134" height="48" rx="4" fill="#630ECF"/>
<path d="M69.097 22.7035H63.3821C63.2348 22.7035 63.1159 22.8199 63.1159 22.9641V25.6995C63.1159 25.8436 63.2348 25.9619 63.3821 25.9619H65.6118V29.3608C65.6118 29.3608 65.1115 29.5272 63.7276 29.5272C62.0945 29.5272 59.8138 28.9431 59.8138 24.0342C59.8138 19.1253 62.1889 18.4784 64.4186 18.4784C66.3481 18.4784 67.1807 18.8111 67.7094 18.9719C67.8755 19.0218 68.0284 18.8591 68.0284 18.715L68.6666 16.072C68.6666 16.0036 68.6439 15.9223 68.5646 15.8687C68.3494 15.719 67.0391 15 63.7276 15C59.9138 14.9982 56 16.5876 56 24.2246C56 31.8615 60.4802 33 64.2562 33C67.3827 33 69.2783 31.6914 69.2783 31.6914C69.3557 31.6489 69.3651 31.5417 69.3651 31.4937V22.9659C69.3651 22.8217 69.2462 22.7053 69.0989 22.7053L69.097 22.7035Z" fill="white"/>
<path d="M98.5474 15.913C98.5474 15.767 98.4303 15.6506 98.2831 15.6506H95.0659C94.9187 15.6506 94.7997 15.7689 94.7997 15.913V21.9993H89.7852V15.913C89.7852 15.767 89.6663 15.6506 89.519 15.6506H86.3019C86.1546 15.6506 86.0356 15.7689 86.0356 15.913V32.3956C86.0356 32.5416 86.1546 32.6599 86.3019 32.6599H89.519C89.6663 32.6599 89.7852 32.5416 89.7852 32.3956V25.3446H94.7997L94.7903 32.3938C94.7903 32.5398 94.9092 32.6581 95.0565 32.6581H98.2812C98.4285 32.6581 98.5455 32.5398 98.5474 32.3938V15.913Z" fill="white"/>
<path d="M75.1689 18.0755C75.1689 16.9406 74.24 16.0239 73.094 16.0239C71.9479 16.0239 71.019 16.9406 71.019 18.0755C71.019 19.2103 71.9479 20.127 73.094 20.127C74.24 20.127 75.1689 19.2084 75.1689 18.0755Z" fill="white"/>
<path d="M74.9384 28.9191V21.3099C74.9384 21.1657 74.8195 21.0474 74.6722 21.0474H71.4645C71.3172 21.0474 71.1851 21.1953 71.1851 21.3413V32.2422C71.1851 32.562 71.389 32.6581 71.6533 32.6581H74.5438C74.861 32.6581 74.9384 32.5065 74.9384 32.2367V28.9191Z" fill="white"/>
<path d="M110.774 21.0733H107.582C107.434 21.0733 107.315 21.1916 107.315 21.3376V29.42C107.315 29.42 106.504 30.0003 105.354 30.0003C104.204 30.0003 103.896 29.4883 103.896 28.385V21.3358C103.896 21.1898 103.777 21.0715 103.63 21.0715H100.39C100.245 21.0715 100.124 21.1898 100.124 21.3358V28.9172C100.124 32.1942 101.989 32.9963 104.557 32.9963C106.662 32.9963 108.361 31.8578 108.361 31.8578C108.361 31.8578 108.443 32.4585 108.478 32.5287C108.514 32.5989 108.611 32.671 108.713 32.671L110.774 32.6618C110.92 32.6618 111.04 32.5435 111.04 32.3993V21.3358C111.04 21.1898 110.92 21.0715 110.772 21.0715L110.774 21.0733Z" fill="white"/>
<path d="M119.503 20.7018C117.688 20.7018 116.455 21.4947 116.455 21.4947V15.913C116.455 15.767 116.336 15.6506 116.189 15.6506H112.962C112.815 15.6506 112.696 15.7689 112.696 15.913V32.3956C112.696 32.5416 112.815 32.6599 112.962 32.6599H115.202C115.302 32.6599 115.379 32.6082 115.436 32.5195C115.491 32.4307 115.572 31.7598 115.572 31.7598C115.572 31.7598 116.891 32.9834 119.389 32.9834C122.321 32.9834 124.004 31.527 124.004 26.4461C124.004 21.3653 121.317 20.7018 119.503 20.7018ZM118.243 29.9874C117.135 29.9541 116.385 29.4625 116.385 29.4625V24.243C116.385 24.243 117.126 23.7976 118.036 23.7181C119.185 23.6165 120.294 23.9566 120.294 26.6421C120.294 29.4736 119.793 30.0317 118.245 29.9874H118.243Z" fill="white"/>
<path d="M84.186 21.0456H81.7731C81.7731 21.0456 81.7693 17.9258 81.7693 17.9239C81.7693 17.8056 81.707 17.7465 81.5673 17.7465H78.2784C78.15 17.7465 78.0821 17.8019 78.0821 17.9221V21.1472C78.0821 21.1472 76.4338 21.5372 76.3225 21.5686C76.2111 21.6001 76.1299 21.6999 76.1299 21.82V23.8475C76.1299 23.9935 76.2488 24.11 76.3961 24.11H78.0821V28.9856C78.0821 32.6082 80.6781 32.963 82.4282 32.963C83.2287 32.963 84.186 32.7117 84.3446 32.6544C84.4408 32.6193 84.4956 32.5232 84.4956 32.4178V30.1888C84.4975 30.0428 84.3729 29.9264 84.2313 29.9264C84.0897 29.9264 83.731 29.9818 83.3609 29.9818C82.1752 29.9818 81.7731 29.4421 81.7731 28.7435C81.7731 28.0449 81.7731 24.11 81.7731 24.11H84.186C84.3332 24.11 84.4522 23.9917 84.4522 23.8475V21.308C84.4522 21.162 84.3332 21.0456 84.186 21.0456Z" fill="white"/>
<path fill-rule="evenodd" clip-rule="evenodd" d="M28.0149 6C18.0531 6 10 14.25 10 24.4563C10 32.6148 15.1599 39.5207 22.3181 41.965C23.213 42.1487 23.5409 41.5679 23.5409 41.0792C23.5409 40.6514 23.5114 39.1847 23.5114 37.6566C18.5 38.7569 17.4565 35.4565 17.4565 35.4565C16.6511 33.3175 15.4579 32.7678 15.4579 32.7678C13.8177 31.6371 15.5773 31.6371 15.5773 31.6371C17.3967 31.7594 18.3514 33.5316 18.3514 33.5316C19.9618 36.3426 22.5567 35.5484 23.6006 35.0594C23.7496 33.8676 24.2271 33.0426 24.7341 32.5844C20.7373 32.1565 16.532 30.5676 16.532 23.4783C16.532 21.4616 17.2474 19.8116 18.3809 18.5283C18.2021 18.0701 17.5756 16.1752 18.5602 13.6391C18.5602 13.6391 20.0812 13.1501 23.511 15.5336C24.9794 15.1296 26.4937 14.9241 28.0149 14.9223C29.536 14.9223 31.0866 15.1365 32.5184 15.5336C35.9485 13.1501 37.4696 13.6391 37.4696 13.6391C38.4542 16.1752 37.8273 18.0701 37.6485 18.5283C38.8119 19.8116 39.4978 21.4616 39.4978 23.4783C39.4978 30.5676 35.2925 32.1258 31.2658 32.5844C31.9222 33.1649 32.4886 34.2648 32.4886 36.0066C32.4886 38.4816 32.4591 40.468 32.4591 41.0789C32.4591 41.5679 32.7873 42.1487 33.6818 41.9654C40.84 39.5204 45.9999 32.6148 45.9999 24.4563C46.0294 14.25 37.9468 6 28.0149 6Z" fill="white"/>
</svg>
