<svg width="189" height="48" viewBox="0 0 189 48" fill="none" xmlns="http://www.w3.org/2000/svg">
<rect width="189" height="48" rx="4" fill="#009FFF"/>
<path fill-rule="evenodd" clip-rule="evenodd" d="M42.4672 27.1863L30.8773 24.0808L29.9801 27.429L41.5701 30.5345L42.4672 27.1863ZM41.5698 30.5344L12.9813 22.8741L9.87575 34.4641L38.4643 42.1244L41.5698 30.5344Z" fill="white"/>
<path fill-rule="evenodd" clip-rule="evenodd" d="M13.5328 20.8136L25.1227 23.9191L26.0199 20.5709L14.4299 17.4654L13.5328 20.8136ZM14.4302 17.4655L43.0187 25.1257L46.1243 13.5358L17.5357 5.87552L14.4302 17.4655Z" fill="white"/>
<path d="M56 30.764H59.0539V21.582L62.9978 27.5685H63.0787L67.0629 21.5213V30.764H70.1573V16.6067H66.8L63.0787 22.5933L59.3573 16.6067H56V30.764Z" fill="white"/>
<path d="M76.3089 30.9663C77.8056 30.9663 78.837 30.4202 79.5853 29.591V30.764H82.5584V24.4742C82.5584 23.018 82.1943 21.8247 81.3853 21.0157C80.6168 20.2472 79.4033 19.8022 77.7247 19.8022C75.8842 19.8022 74.7112 20.1461 73.5179 20.6719L74.2865 23.018C75.2775 22.6539 76.1067 22.4315 77.2797 22.4315C78.8168 22.4315 79.6056 23.1393 79.6056 24.4135V24.5955C78.837 24.3326 78.0483 24.1506 76.9561 24.1506C74.3876 24.1506 72.5876 25.2427 72.5876 27.609V27.6494C72.5876 29.7933 74.2662 30.9663 76.3089 30.9663ZM77.2393 28.8427C76.2483 28.8427 75.5606 28.3573 75.5606 27.5281V27.4876C75.5606 26.5169 76.3696 25.991 77.6842 25.991C78.4325 25.991 79.1202 26.1528 79.646 26.3955V26.9416C79.646 28.0539 78.6752 28.8427 77.2393 28.8427Z" fill="white"/>
<path d="M85.2037 30.764H88.2779V26.7596C88.2779 24.1708 89.5318 22.9371 91.5745 22.9371H91.7363V19.7213C89.9161 19.6404 88.9048 20.6112 88.2779 22.1079V19.9236H85.2037V30.764Z" fill="white"/>
<path d="M93.657 30.764H96.7312V27.4674L97.8031 26.3348L100.635 30.764H104.154L99.8862 24.191L104.012 19.9236H100.331L96.7312 23.8674V16H93.657V30.764Z" fill="white"/>
<path d="M110.249 31.0067C112.211 31.0067 113.667 30.2382 114.679 28.9843L112.919 27.427C112.07 28.2157 111.321 28.5393 110.29 28.5393C108.915 28.5393 107.944 27.8112 107.641 26.4157H115.184C115.205 26.1326 115.225 25.8494 115.225 25.6067C115.225 22.5326 113.566 19.7213 109.946 19.7213C106.791 19.7213 104.587 22.2697 104.587 25.364V25.4045C104.587 28.7213 106.993 31.0067 110.249 31.0067ZM107.6 24.4944C107.843 23.0989 108.672 22.1888 109.946 22.1888C111.241 22.1888 112.049 23.1191 112.232 24.4944H107.6Z" fill="white"/>
<path d="M121.177 30.9461C122.208 30.9461 122.956 30.7034 123.603 30.3191V27.8517C123.159 28.0944 122.653 28.236 122.087 28.236C121.399 28.236 121.096 27.8921 121.096 27.1843V22.5528H123.644V19.9236H121.096V17.1528H118.021V19.9236H116.727V22.5528H118.021V27.6899C118.021 30.1978 119.296 30.9461 121.177 30.9461Z" fill="white"/>
<path d="M125.91 34H128.984V29.3483C129.712 30.218 130.723 30.9663 132.362 30.9663C134.93 30.9663 137.296 28.9843 137.296 25.364V25.3236C137.296 21.7034 134.89 19.7213 132.362 19.7213C130.764 19.7213 129.732 20.4697 128.984 21.4809V19.9236H125.91V34ZM131.573 28.3573C130.137 28.3573 128.944 27.164 128.944 25.364V25.3236C128.944 23.5236 130.137 22.3303 131.573 22.3303C133.009 22.3303 134.222 23.5236 134.222 25.3236V25.364C134.222 27.1843 133.009 28.3573 131.573 28.3573Z" fill="white"/>
<path d="M139.699 30.764H142.773V16H139.699V30.764Z" fill="white"/>
<path d="M148.735 30.9663C150.231 30.9663 151.263 30.4202 152.011 29.591V30.764H154.984V24.4742C154.984 23.018 154.62 21.8247 153.811 21.0157C153.043 20.2472 151.829 19.8022 150.15 19.8022C148.31 19.8022 147.137 20.1461 145.944 20.6719L146.712 23.018C147.703 22.6539 148.533 22.4315 149.706 22.4315C151.243 22.4315 152.031 23.1393 152.031 24.4135V24.5955C151.263 24.3326 150.474 24.1506 149.382 24.1506C146.813 24.1506 145.013 25.2427 145.013 27.609V27.6494C145.013 29.7933 146.692 30.9663 148.735 30.9663ZM149.665 28.8427C148.674 28.8427 147.986 28.3573 147.986 27.5281V27.4876C147.986 26.5169 148.795 25.991 150.11 25.991C150.858 25.991 151.546 26.1528 152.072 26.3955V26.9416C152.072 28.0539 151.101 28.8427 149.665 28.8427Z" fill="white"/>
<path d="M162.746 31.0067C164.91 31.0067 166.124 30.1775 167.176 29.0247L165.376 27.2045C164.627 27.9124 163.919 28.3573 162.888 28.3573C161.209 28.3573 160.137 27.0225 160.137 25.364V25.3236C160.137 23.7258 161.23 22.3708 162.767 22.3708C163.859 22.3708 164.546 22.836 165.234 23.564L167.115 21.5416C166.104 20.409 164.83 19.7213 162.787 19.7213C159.47 19.7213 157.104 22.2697 157.104 25.364V25.4045C157.104 28.4989 159.49 31.0067 162.746 31.0067Z" fill="white"/>
<path d="M174.025 31.0067C175.986 31.0067 177.442 30.2382 178.454 28.9843L176.694 27.427C175.845 28.2157 175.096 28.5393 174.065 28.5393C172.69 28.5393 171.719 27.8112 171.416 26.4157H178.959C178.98 26.1326 179 25.8494 179 25.6067C179 22.5326 177.341 19.7213 173.721 19.7213C170.566 19.7213 168.362 22.2697 168.362 25.364V25.4045C168.362 28.7213 170.768 31.0067 174.025 31.0067ZM171.375 24.4944C171.618 23.0989 172.447 22.1888 173.721 22.1888C175.016 22.1888 175.825 23.1191 176.007 24.4944H171.375Z" fill="white"/>
</svg>
