<svg width="163" height="48" viewBox="0 0 163 48" fill="none" xmlns="http://www.w3.org/2000/svg">
<rect width="163" height="48" rx="4" fill="#009FFF"/>
<path fill-rule="evenodd" clip-rule="evenodd" d="M42.4672 27.1863L30.8773 24.0808L29.9801 27.429L41.5701 30.5345L42.4672 27.1863ZM41.5698 30.5344L12.9813 22.8741L9.87575 34.4641L38.4643 42.1244L41.5698 30.5344Z" fill="white"/>
<path fill-rule="evenodd" clip-rule="evenodd" d="M13.5328 20.8136L25.1227 23.9192L26.0199 20.571L14.4299 17.4654L13.5328 20.8136ZM14.4302 17.4655L43.0187 25.1258L46.1243 13.5358L17.5357 5.87553L14.4302 17.4655Z" fill="white"/>
<path d="M67.6944 26.7091L70.4865 31.8491H65.3059L62.9484 27.4565H60.715V31.8491H56V16.2784H64.6235C68.1907 16.2784 70.4555 18.2698 70.4555 21.8511C70.4555 24.1556 69.4009 25.8064 67.6944 26.7091ZM60.715 20.3252V23.4081H64.0651C65.0578 23.4081 65.6781 22.8165 65.6781 21.8511C65.6781 20.8857 65.0578 20.3252 64.0651 20.3252H60.715ZM85.4691 33L71.3551 29.1696L75.1395 15L82.1965 16.9152L89.2534 18.8304L85.4691 33ZM82.8014 22.5673L78.8619 21.4774L77.8072 25.4323L81.7467 26.5226L82.8014 22.5673ZM105.415 27.4565C105.415 30.4461 103.523 31.8491 100.576 31.8491H91.3322V16.2784H100.266C103.213 16.2784 105.105 17.8044 105.105 20.4825C105.105 22.1641 104.485 23.2855 103.306 24.0641C104.64 24.6538 105.415 25.8375 105.415 27.4565ZM95.9231 20.0154V22.3198H98.9922C99.8298 22.3198 100.326 21.9462 100.326 21.1365C100.326 20.3891 99.8298 20.0154 98.9922 20.0154H95.9231ZM95.9231 28.1121H99.3663C100.173 28.1121 100.64 27.6762 100.64 26.9284C100.64 26.1191 100.174 25.7454 99.3663 25.7454H95.9231V28.1121ZM107.742 16.2784H112.456V27.2389H119.218V31.8491H107.741L107.742 16.2784ZM136.559 24.0641C136.559 25.6655 136.086 27.2309 135.2 28.5624C134.314 29.8939 133.054 30.9317 131.581 31.5445C130.107 32.1573 128.485 32.3177 126.921 32.0053C125.356 31.6928 123.919 30.9217 122.791 29.7893C121.663 28.657 120.895 27.2143 120.584 25.6437C120.273 24.0731 120.433 22.4451 121.043 20.9656C121.653 19.4861 122.687 18.2216 124.013 17.3319C125.34 16.4422 126.899 15.9673 128.494 15.9673C129.554 15.9652 130.603 16.1732 131.583 16.5792C132.562 16.9853 133.452 17.5814 134.201 18.3335C134.95 19.0856 135.545 19.9788 135.949 20.962C136.354 21.9451 136.561 22.9987 136.559 24.0624V24.0641ZM131.844 24.0641C131.844 22.133 130.324 20.6071 128.494 20.6071C126.664 20.6071 125.144 22.133 125.144 24.0641C125.144 25.9952 126.664 27.5208 128.494 27.5208C130.324 27.5208 131.844 25.9929 131.844 24.0624V24.0641ZM147.912 23.8146L153 31.8491H147.384L144.593 27.2697L141.709 31.8491H136.001L141.305 24.0012L136.435 16.2784H142.05L144.624 20.4825L147.106 16.2784H152.69L147.912 23.8146Z" fill="white"/>
</svg>
