<svg width="125" height="48" viewBox="0 0 125 48" fill="none" xmlns="http://www.w3.org/2000/svg">
<rect width="125" height="48" rx="4" fill="#F2F2F2"/>
<path d="M23.9798 35.82L22.7798 40.62C22.7798 40.62 33.6998 40.92 38.2598 37.2C42.8198 33.48 41.6798 33.72 41.6798 33.72L36.8798 29.16L23.9798 35.82Z" fill="#F2C57E"/>
<path d="M27.1599 36.48C27.1599 36.48 27.5199 40.02 28.7199 40.68C28.7199 40.68 22.8999 41.1 23.0199 39.54L23.8599 35.76L27.1599 36.48Z" fill="#BD704B"/>
<path d="M23.0796 27.66C23.0796 27.66 24.1596 29.16 24.3996 31.38C24.6396 33.6 21.9996 35.52 26.8596 36.42C31.1796 37.2 40.5996 33.12 37.5396 30.06C35.6196 28.14 34.2996 26.58 35.1396 22.86C36.0396 19.14 30.8796 16.86 30.8796 16.86L23.0796 27.66Z" fill="#F2C57E"/>
<path d="M34.5399 26.46C34.5399 26.46 36.1599 30.72 41.4399 33.9L41.8599 32.94C41.8599 32.94 37.4199 31.56 35.0199 26.28C32.6199 21 34.4199 26.46 34.5399 26.46ZM25.0599 11.4C25.0599 11.4 21.9999 12.72 23.3799 22.2C23.7999 27.36 21.6399 26.94 21.2199 26.46C20.7399 26.04 22.6599 23.4 21.5799 22.5C20.4999 21.6 19.1799 22.44 17.8599 19.86C16.1799 16.5 18.1599 17.88 19.7199 15C20.8599 12.9 21.6999 11.7 22.6599 11.82C23.4399 11.88 24.1599 10.74 25.0599 11.4Z" fill="#BD704B"/>
<path d="M18.9399 22.26C18.9399 22.26 19.0599 24.48 18.6399 25.74C17.9799 27.6 19.6599 30.12 22.1199 27.42C24.5799 24.72 18.9399 22.26 18.9399 22.26Z" fill="#F2C57E"/>
<path d="M31.4197 12C31.4197 12 26.6797 9.59999 22.8997 12.3C19.1197 15 22.1197 14.64 19.8397 18.06C17.5597 21.48 19.4197 29.16 26.7397 29.28C34.0597 29.4 33.9397 15.36 33.9397 15.36C33.9397 15.36 33.2197 12.24 31.4197 12Z" fill="#F2C57E"/>
<path d="M29.8001 27.6C29.8001 27.6 27.5201 29.64 27.6401 31.02C27.7001 32.4 33.3401 32.1 28.3601 33.48C26.9801 33.84 27.0401 36.12 28.1201 36.54C29.2001 36.96 23.9801 36.12 24.0401 34.38C24.1001 32.7 24.8201 29.64 23.0801 28.5C22.9601 28.5 27.3401 29.82 29.8001 27.6Z" fill="#BD704B"/>
<path d="M23.92 34.26C23.92 34.26 28.42 36.42 33.04 33.9C36.46 32.04 37.54 30 37.18 29.58C37.18 29.58 38.02 29.64 38.8 30.84C39.4 31.74 38.44 34.5 33.4 36.6C28.66 38.52 24.4 37.32 23.56 36.48C22.78 35.64 23.92 34.26 23.92 34.26Z" fill="#AD4646"/>
<path d="M22.1201 17.34C21.8201 17.34 21.5801 17.1 21.5801 16.8V15.54C21.5801 15.24 21.8201 15 22.1201 15C22.4201 15 22.6601 15.24 22.6601 15.54V16.8C22.6601 17.1 22.4201 17.34 22.1201 17.34Z" fill="#3F2418"/>
<path d="M23.4996 15.9C23.4996 15.9 19.5396 18.72 18.0396 19.32C16.5396 19.92 16.5996 21.54 18.6396 23.22C20.6796 24.9 26.7396 20.46 23.4996 15.9Z" fill="#F2C57E"/>
<path d="M17.7397 22.26C17.7397 22.26 19.2397 23.88 18.3397 25.68C17.7397 26.88 18.3397 29.16 20.5597 28.5C20.5597 28.5 17.9797 28.62 18.9997 25.74C19.3597 24.66 19.3597 23.04 17.7397 22.26ZM30.4597 11.64C30.4597 11.64 34.7797 13.38 33.2197 22.86C32.6797 28.02 35.1997 27.6 35.7997 27.12C36.3397 26.7 36.3997 25.02 37.6597 24.18C38.8597 23.28 41.8597 20.64 40.3597 18C38.8597 15.36 37.2997 15.9 36.3397 14.16C35.4397 12.6 34.8397 12.36 33.7597 12.36C32.8597 12.36 31.5997 11.04 30.4597 11.64Z" fill="#BD704B"/>
<path d="M29.2597 17.88C28.9597 17.88 28.6597 17.64 28.6597 17.28V15.9C28.6597 15.6 28.8997 15.3 29.2597 15.3C29.5597 15.3 29.8597 15.54 29.8597 15.9V17.34C29.8597 17.64 29.5597 17.88 29.2597 17.88Z" fill="#3F2418"/>
<path d="M28.2998 14.94C28.2998 14.94 26.9798 14.22 28.0598 13.62C29.4398 12.84 30.9998 14.1 31.2398 14.82C31.2398 14.82 29.6198 13.32 28.2998 14.04C27.5798 14.4 28.2998 14.94 28.2998 14.94ZM22.5998 13.8C22.5527 13.6928 22.467 13.6071 22.3598 13.56C22.1798 13.44 21.8798 13.44 21.6398 13.5C21.3998 13.56 21.2198 13.74 21.0398 13.86C21.1598 13.56 21.3398 13.32 21.6398 13.2C21.7598 13.14 21.9398 13.14 22.0598 13.14C22.3598 13.14 22.6598 13.26 22.8998 13.44C23.1398 13.62 23.2598 13.92 23.2598 14.22C23.1998 14.46 23.0798 14.7 22.8398 14.76C22.7798 14.76 22.7198 14.82 22.7198 14.76C22.7198 14.7 22.7798 14.64 22.7798 14.58C22.8398 14.46 22.8398 14.34 22.7798 14.16C22.7798 14.1 22.7198 13.92 22.5998 13.8ZM20.4998 25.2C20.4998 25.2 21.8198 29.64 26.7398 28.56C31.2398 27.54 31.8998 23.7 31.8998 23.7C32.1998 24.6 30.9398 29.82 24.8198 29.34C20.3798 28.98 20.4998 25.2 20.4998 25.2Z" fill="#BD704B"/>
<path d="M21.4598 27.36C21.4598 27.36 21.2798 29.1 18.7598 28.2C18.7598 28.2 20.0198 29.64 21.5798 28.08C22.2998 27.3 21.4598 27.36 21.4598 27.36ZM17.4998 20.94C17.1998 20.76 17.1998 20.28 17.3798 19.98C17.6198 19.68 18.0998 19.44 18.4598 19.26C20.3198 18.42 22.2998 17.28 23.6798 15.66C23.6798 15.66 19.4798 18.6 17.2598 19.38C16.1798 19.8 17.4998 20.94 17.4998 20.94Z" fill="#BD704B"/>
<path d="M17.0198 20.04C16.3598 20.7 17.4398 22.68 18.7598 23.28C20.2598 23.94 22.4198 21.36 21.9998 20.64C21.5198 19.68 18.3998 18.66 17.0198 20.04Z" fill="#AD4646"/>
<path fill-rule="evenodd" clip-rule="evenodd" d="M21.543 21.981C21.1802 21.661 20.6676 21.488 20.2001 21.54C20.1401 21.54 20.0201 21.54 19.9001 21.6C19.8401 21.6 19.7801 21.66 19.7201 21.72C19.6001 21.84 19.6001 22.14 19.7201 22.32C19.8361 22.6038 20.0486 22.8375 20.3201 22.98C20.3511 22.9933 20.3825 23.0053 20.4141 23.016C20.8482 22.7483 21.2473 22.3674 21.543 21.981ZM18.0604 22.8217C18.0952 22.791 18.1276 22.7574 18.1572 22.7213C18.2518 22.6056 18.3148 22.4673 18.3401 22.32C18.4001 22.14 18.4601 21.9 18.3401 21.72C18.2801 21.66 18.2201 21.6 18.1601 21.6C18.1001 21.54 17.9801 21.54 17.9201 21.54C17.6671 21.5039 17.4142 21.5765 17.1743 21.7318C17.3948 22.1258 17.704 22.5139 18.0604 22.8217Z" fill="#6A2524"/>
<path d="M28 42C18.1 42 10 33.9 10 24C10 14.1 18.1 6 28 6C37.9 6 46 14.1 46 24C46 33.9 37.96 42 28 42ZM28 8.4C19.42 8.4 12.4 15.42 12.4 24C12.4 32.58 19.42 39.6 28 39.6C36.58 39.6 43.6 32.58 43.6 24C43.6 15.42 36.64 8.4 28 8.4Z" fill="#AD4646"/>
<path d="M22.8999 11.94C22.8999 11.94 28.3599 9.66 32.3199 13.14C32.3199 13.14 32.1999 11.52 29.1399 10.86C27.5199 10.5 23.9199 10.56 22.8999 11.94Z" fill="#BD704B"/>
<path d="M22.4196 25.8C22.6184 25.8 22.7796 25.6925 22.7796 25.56C22.7796 25.4274 22.6184 25.32 22.4196 25.32C22.2207 25.32 22.0596 25.4274 22.0596 25.56C22.0596 25.6925 22.2207 25.8 22.4196 25.8Z" fill="#BD704B"/>
<path d="M24.7594 27C24.9582 27 25.1194 26.8925 25.1194 26.76C25.1194 26.6274 24.9582 26.52 24.7594 26.52C24.5606 26.52 24.3994 26.6274 24.3994 26.76C24.3994 26.8925 24.5606 27 24.7594 27Z" fill="#BD704B"/>
<path d="M26.8595 26.94C27.0583 26.94 27.2195 26.8325 27.2195 26.7C27.2195 26.5674 27.0583 26.46 26.8595 26.46C26.6607 26.46 26.4995 26.5674 26.4995 26.7C26.4995 26.8325 26.6607 26.94 26.8595 26.94Z" fill="#BD704B"/>
<path d="M25.8395 28.02C26.0383 28.02 26.1995 27.9125 26.1995 27.78C26.1995 27.6474 26.0383 27.54 25.8395 27.54C25.6407 27.54 25.4795 27.6474 25.4795 27.78C25.4795 27.9125 25.6407 28.02 25.8395 28.02Z" fill="#BD704B"/>
<path d="M23.1998 27.36C23.3987 27.36 23.5598 27.2525 23.5598 27.12C23.5598 26.9874 23.3987 26.88 23.1998 26.88C23.001 26.88 22.8398 26.9874 22.8398 27.12C22.8398 27.2525 23.001 27.36 23.1998 27.36Z" fill="#BD704B"/>
<path d="M64.4545 30.4481C64.1525 31.6503 63.609 32.2514 61.8577 32.2514C60.1668 32.2514 59.6233 31.6503 59.3214 30.5082L56.1812 17.8251C56.1208 17.5246 56 17.0437 56 16.7432C56 16.082 56.4227 15.541 57.9324 15.541C59.3214 15.541 59.7441 16.0218 59.9857 17.1038L62.1597 27.6229L64.696 18.0055C64.998 16.7432 65.6018 16.082 67.172 16.082C68.7421 16.082 69.2856 16.7432 69.5875 18.0055L72.0635 27.6229L74.2979 17.1038C74.5394 16.0218 74.9621 15.541 76.2907 15.541C77.74 15.541 78.1627 16.1421 78.1627 16.7432C78.1627 17.0437 78.042 17.4645 77.9816 17.8251L74.781 30.5082C74.479 31.6503 73.9959 32.2514 72.305 32.2514C70.6141 32.2514 70.0102 31.6503 69.7083 30.4481L67.172 20.8306L64.4545 30.4481ZM83.5977 23.4754C82.9335 23.4754 82.3296 23.6557 81.4841 23.9563C81.0614 24.1366 80.6991 24.2568 80.3971 24.2568C79.5517 24.2568 78.9478 23.235 78.9478 22.5136C78.9478 21.9727 79.2497 21.612 79.914 21.2514C81.001 20.6503 82.39 20.4098 83.8997 20.4098C85.8321 20.4098 87.2211 20.8907 88.0061 21.7322C88.5496 22.3934 88.8516 23.2951 88.8516 24.5574V30.6885C88.8516 31.7705 88.2477 32.1912 86.9795 32.1912C85.8321 32.1912 85.4094 31.8306 85.4094 30.9891C84.7451 31.7705 83.6581 32.1912 82.3296 32.1912C79.9744 32.1912 78.4647 30.9289 78.4647 28.8852C78.4647 26.6011 80.216 25.3388 85.1679 24.918V24.7978C85.1679 23.9563 84.8659 23.4754 83.5977 23.4754ZM82.2692 28.5246C82.2692 29.0656 82.5711 29.4262 83.4166 29.4262C84.0809 29.4262 84.6847 29.1858 85.1679 28.765V26.9617C83.2354 27.2623 82.2692 27.683 82.2692 28.5246Z" fill="#AD4646"/>
<path d="M95.0714 30.6885C95.0714 31.7104 94.4675 32.1913 93.139 32.1913C91.8104 32.1913 91.2065 31.7104 91.2065 30.6885V16.5027C91.2065 15.4809 91.8104 15 93.139 15C94.4675 15 95.0714 15.4809 95.0714 16.5027V30.6885Z" fill="#AD4646"/>
<path d="M101.231 30.6885C101.231 31.7104 100.627 32.1913 99.2987 32.1913C97.9701 32.1913 97.3662 31.7104 97.3662 30.6885V16.5027C97.3662 15.4809 97.9701 15 99.2987 15C100.627 15 101.231 15.4809 101.231 16.5027V30.6885Z" fill="#AD4646"/>
<path d="M115 21.6721C115 22.153 114.819 22.9344 114.577 23.8962C113.611 27.2022 111.316 32.4317 108.84 35.4973C107.995 36.5792 107.391 37 106.666 37C105.7 37 104.613 36.2186 104.613 35.2568C104.613 34.6557 105.036 34.1749 105.519 33.694C106.123 33.0929 107.089 32.0109 107.331 31.5902L103.587 22.7541C103.405 22.3935 103.285 21.9727 103.285 21.612C103.285 20.9508 103.707 20.47 105.096 20.47C106.485 20.47 106.908 20.9508 107.331 21.9727L109.505 28.1038C110.048 26.9016 110.833 24.4973 111.437 22.0328C111.618 21.2514 111.739 20.5301 113.37 20.5301C114.698 20.47 115 21.0109 115 21.6721Z" fill="#AD4646"/>
</svg>
